<svg id="visual" viewBox="0 0 960 540" width="960" height="540" xmlns="http://www.w3.org/2000/svg" xmlns:xlink="http://www.w3.org/1999/xlink" version="1.1"><rect x="0" y="0" width="960" height="540" fill="#0e0e0e"></rect><defs><linearGradient id="grad1_0" x1="43.8%" y1="0%" x2="100%" y2="100%"><stop offset="14.444444444444446%" stop-color="#ffd100" stop-opacity="1"></stop><stop offset="85.55555555555554%" stop-color="#ffd100" stop-opacity="1"></stop></linearGradient></defs><defs><linearGradient id="grad1_1" x1="43.8%" y1="0%" x2="100%" y2="100%"><stop offset="14.444444444444446%" stop-color="#ffd100" stop-opacity="1"></stop><stop offset="85.55555555555554%" stop-color="#d2ac15" stop-opacity="1"></stop></linearGradient></defs><defs><linearGradient id="grad1_2" x1="43.8%" y1="0%" x2="100%" y2="100%"><stop offset="14.444444444444446%" stop-color="#a7891b" stop-opacity="1"></stop><stop offset="85.55555555555554%" stop-color="#d2ac15" stop-opacity="1"></stop></linearGradient></defs><defs><linearGradient id="grad1_3" x1="43.8%" y1="0%" x2="100%" y2="100%"><stop offset="14.444444444444446%" stop-color="#a7891b" stop-opacity="1"></stop><stop offset="85.55555555555554%" stop-color="#7e681d" stop-opacity="1"></stop></linearGradient></defs><defs><linearGradient id="grad1_4" x1="43.8%" y1="0%" x2="100%" y2="100%"><stop offset="14.444444444444446%" stop-color="#57481b" stop-opacity="1"></stop><stop offset="85.55555555555554%" stop-color="#7e681d" stop-opacity="1"></stop></linearGradient></defs><defs><linearGradient id="grad1_5" x1="43.8%" y1="0%" x2="100%" y2="100%"><stop offset="14.444444444444446%" stop-color="#57481b" stop-opacity="1"></stop><stop offset="85.55555555555554%" stop-color="#322a16" stop-opacity="1"></stop></linearGradient></defs><defs><linearGradient id="grad1_6" x1="43.8%" y1="0%" x2="100%" y2="100%"><stop offset="14.444444444444446%" stop-color="#0e0e0e" stop-opacity="1"></stop><stop offset="85.55555555555554%" stop-color="#322a16" stop-opacity="1"></stop></linearGradient></defs><defs><linearGradient id="grad2_0" x1="0%" y1="0%" x2="56.3%" y2="100%"><stop offset="14.444444444444446%" stop-color="#ffd100" stop-opacity="1"></stop><stop offset="85.55555555555554%" stop-color="#ffd100" stop-opacity="1"></stop></linearGradient></defs><defs><linearGradient id="grad2_1" x1="0%" y1="0%" x2="56.3%" y2="100%"><stop offset="14.444444444444446%" stop-color="#d2ac15" stop-opacity="1"></stop><stop offset="85.55555555555554%" stop-color="#ffd100" stop-opacity="1"></stop></linearGradient></defs><defs><linearGradient id="grad2_2" x1="0%" y1="0%" x2="56.3%" y2="100%"><stop offset="14.444444444444446%" stop-color="#d2ac15" stop-opacity="1"></stop><stop offset="85.55555555555554%" stop-color="#a7891b" stop-opacity="1"></stop></linearGradient></defs><defs><linearGradient id="grad2_3" x1="0%" y1="0%" x2="56.3%" y2="100%"><stop offset="14.444444444444446%" stop-color="#7e681d" stop-opacity="1"></stop><stop offset="85.55555555555554%" stop-color="#a7891b" stop-opacity="1"></stop></linearGradient></defs><defs><linearGradient id="grad2_4" x1="0%" y1="0%" x2="56.3%" y2="100%"><stop offset="14.444444444444446%" stop-color="#7e681d" stop-opacity="1"></stop><stop offset="85.55555555555554%" stop-color="#57481b" stop-opacity="1"></stop></linearGradient></defs><defs><linearGradient id="grad2_5" x1="0%" y1="0%" x2="56.3%" y2="100%"><stop offset="14.444444444444446%" stop-color="#322a16" stop-opacity="1"></stop><stop offset="85.55555555555554%" stop-color="#57481b" stop-opacity="1"></stop></linearGradient></defs><defs><linearGradient id="grad2_6" x1="0%" y1="0%" x2="56.3%" y2="100%"><stop offset="14.444444444444446%" stop-color="#322a16" stop-opacity="1"></stop><stop offset="85.55555555555554%" stop-color="#0e0e0e" stop-opacity="1"></stop></linearGradient></defs><g transform="translate(960, 0)"><path d="M0 324C-57.6 316 -115.1 308.1 -162 280.6C-208.9 253.1 -245 206 -270.2 156C-295.4 106 -309.7 53 -324 0L0 0Z" fill="#211d13"></path><path d="M0 277.7C-49.3 270.9 -98.7 264.1 -138.9 240.5C-179 216.9 -210 176.6 -231.6 133.7C-253.2 90.8 -265.5 45.4 -277.7 0L0 0Z" fill="#443919"></path><path d="M0 231.4C-41.1 225.7 -82.2 220.1 -115.7 200.4C-149.2 180.8 -175 147.2 -193 111.4C-211 75.7 -221.2 37.8 -231.4 0L0 0Z" fill="#6a571c"></path><path d="M0 185.1C-32.9 180.6 -65.8 176.1 -92.6 160.3C-119.3 144.6 -140 117.7 -154.4 89.1C-168.8 60.6 -177 30.3 -185.1 0L0 0Z" fill="#92781d"></path><path d="M0 138.9C-24.7 135.4 -49.3 132 -69.4 120.3C-89.5 108.5 -105 88.3 -115.8 66.9C-126.6 45.4 -132.7 22.7 -138.9 0L0 0Z" fill="#bc9b19"></path><path d="M0 92.6C-16.4 90.3 -32.9 88 -46.3 80.2C-59.7 72.3 -70 58.9 -77.2 44.6C-84.4 30.3 -88.5 15.1 -92.6 0L0 0Z" fill="#e8bf0e"></path><path d="M0 46.3C-8.2 45.1 -16.4 44 -23.1 40.1C-29.8 36.2 -35 29.4 -38.6 22.3C-42.2 15.1 -44.2 7.6 -46.3 0L0 0Z" fill="#ffd100"></path></g><g transform="translate(0, 540)"><path d="M0 -324C54.1 -311.6 108.1 -299.1 158 -273.7C207.9 -248.2 253.6 -209.8 280.6 -162C307.6 -114.2 315.8 -57.1 324 0L0 0Z" fill="#211d13"></path><path d="M0 -277.7C46.3 -267 92.7 -256.4 135.4 -234.6C178.2 -212.8 217.4 -179.8 240.5 -138.9C263.6 -97.9 270.7 -49 277.7 0L0 0Z" fill="#443919"></path><path d="M0 -231.4C38.6 -222.5 77.2 -213.6 112.9 -195.5C148.5 -177.3 181.2 -149.8 200.4 -115.7C219.7 -81.6 225.6 -40.8 231.4 0L0 0Z" fill="#6a571c"></path><path d="M0 -185.1C30.9 -178 61.8 -170.9 90.3 -156.4C118.8 -141.8 144.9 -119.9 160.3 -92.6C175.8 -65.3 180.4 -32.6 185.1 0L0 0Z" fill="#92781d"></path><path d="M0 -138.9C23.2 -133.5 46.3 -128.2 67.7 -117.3C89.1 -106.4 108.7 -89.9 120.3 -69.4C131.8 -49 135.3 -24.5 138.9 0L0 0Z" fill="#bc9b19"></path><path d="M0 -92.6C15.4 -89 30.9 -85.5 45.1 -78.2C59.4 -70.9 72.5 -59.9 80.2 -46.3C87.9 -32.6 90.2 -16.3 92.6 0L0 0Z" fill="#e8bf0e"></path><path d="M0 -46.3C7.7 -44.5 15.4 -42.7 22.6 -39.1C29.7 -35.5 36.2 -30 40.1 -23.1C43.9 -16.3 45.1 -8.2 46.3 0L0 0Z" fill="#ffd100"></path></g></svg>