<svg id="visual" viewBox="0 0 1920 1080" width="1920" height="1080" xmlns="http://www.w3.org/2000/svg" xmlns:xlink="http://www.w3.org/1999/xlink" version="1.1"><rect x="0" y="0" width="1920" height="1080" fill="#dadada"></rect><defs><linearGradient id="grad1_0" x1="43.8%" y1="0%" x2="100%" y2="100%"><stop offset="14.444444444444446%" stop-color="#cc81b7" stop-opacity="1"></stop><stop offset="85.55555555555554%" stop-color="#cc81b7" stop-opacity="1"></stop></linearGradient></defs><defs><linearGradient id="grad1_1" x1="43.8%" y1="0%" x2="100%" y2="100%"><stop offset="14.444444444444446%" stop-color="#cc81b7" stop-opacity="1"></stop><stop offset="85.55555555555554%" stop-color="#cf90bd" stop-opacity="1"></stop></linearGradient></defs><defs><linearGradient id="grad1_2" x1="43.8%" y1="0%" x2="100%" y2="100%"><stop offset="14.444444444444446%" stop-color="#d29fc3" stop-opacity="1"></stop><stop offset="85.55555555555554%" stop-color="#cf90bd" stop-opacity="1"></stop></linearGradient></defs><defs><linearGradient id="grad1_3" x1="43.8%" y1="0%" x2="100%" y2="100%"><stop offset="14.444444444444446%" stop-color="#d29fc3" stop-opacity="1"></stop><stop offset="85.55555555555554%" stop-color="#d5aec9" stop-opacity="1"></stop></linearGradient></defs><defs><linearGradient id="grad1_4" x1="43.8%" y1="0%" x2="100%" y2="100%"><stop offset="14.444444444444446%" stop-color="#d7bdce" stop-opacity="1"></stop><stop offset="85.55555555555554%" stop-color="#d5aec9" stop-opacity="1"></stop></linearGradient></defs><defs><linearGradient id="grad1_5" x1="43.8%" y1="0%" x2="100%" y2="100%"><stop offset="14.444444444444446%" stop-color="#d7bdce" stop-opacity="1"></stop><stop offset="85.55555555555554%" stop-color="#d9cbd4" stop-opacity="1"></stop></linearGradient></defs><defs><linearGradient id="grad1_6" x1="43.8%" y1="0%" x2="100%" y2="100%"><stop offset="14.444444444444446%" stop-color="#dadada" stop-opacity="1"></stop><stop offset="85.55555555555554%" stop-color="#d9cbd4" stop-opacity="1"></stop></linearGradient></defs><defs><linearGradient id="grad2_0" x1="0%" y1="0%" x2="56.3%" y2="100%"><stop offset="14.444444444444446%" stop-color="#cc81b7" stop-opacity="1"></stop><stop offset="85.55555555555554%" stop-color="#cc81b7" stop-opacity="1"></stop></linearGradient></defs><defs><linearGradient id="grad2_1" x1="0%" y1="0%" x2="56.3%" y2="100%"><stop offset="14.444444444444446%" stop-color="#cf90bd" stop-opacity="1"></stop><stop offset="85.55555555555554%" stop-color="#cc81b7" stop-opacity="1"></stop></linearGradient></defs><defs><linearGradient id="grad2_2" x1="0%" y1="0%" x2="56.3%" y2="100%"><stop offset="14.444444444444446%" stop-color="#cf90bd" stop-opacity="1"></stop><stop offset="85.55555555555554%" stop-color="#d29fc3" stop-opacity="1"></stop></linearGradient></defs><defs><linearGradient id="grad2_3" x1="0%" y1="0%" x2="56.3%" y2="100%"><stop offset="14.444444444444446%" stop-color="#d5aec9" stop-opacity="1"></stop><stop offset="85.55555555555554%" stop-color="#d29fc3" stop-opacity="1"></stop></linearGradient></defs><defs><linearGradient id="grad2_4" x1="0%" y1="0%" x2="56.3%" y2="100%"><stop offset="14.444444444444446%" stop-color="#d5aec9" stop-opacity="1"></stop><stop offset="85.55555555555554%" stop-color="#d7bdce" stop-opacity="1"></stop></linearGradient></defs><defs><linearGradient id="grad2_5" x1="0%" y1="0%" x2="56.3%" y2="100%"><stop offset="14.444444444444446%" stop-color="#d9cbd4" stop-opacity="1"></stop><stop offset="85.55555555555554%" stop-color="#d7bdce" stop-opacity="1"></stop></linearGradient></defs><defs><linearGradient id="grad2_6" x1="0%" y1="0%" x2="56.3%" y2="100%"><stop offset="14.444444444444446%" stop-color="#d9cbd4" stop-opacity="1"></stop><stop offset="85.55555555555554%" stop-color="#dadada" stop-opacity="1"></stop></linearGradient></defs><g transform="translate(1920, 0)"><path d="M0 648C-109.2 625 -218.4 601.9 -318 550.8C-417.6 499.7 -507.8 420.5 -561.2 324C-614.6 227.5 -631.3 113.8 -648 0L0 0Z" fill="#d9d3d7"></path><path d="M0 555.4C-93.6 535.7 -187.2 515.9 -272.6 472.1C-358 428.3 -435.2 360.4 -481 277.7C-526.8 195 -541.1 97.5 -555.4 0L0 0Z" fill="#d8c4d1"></path><path d="M0 462.9C-78 446.4 -156 429.9 -227.1 393.4C-298.3 356.9 -362.7 300.3 -400.8 231.4C-439 162.5 -450.9 81.3 -462.9 0L0 0Z" fill="#d6b5cb"></path><path d="M0 370.3C-62.4 357.1 -124.8 343.9 -181.7 314.7C-238.7 285.5 -290.2 240.3 -320.7 185.1C-351.2 130 -360.7 65 -370.3 0L0 0Z" fill="#d3a7c6"></path><path d="M0 277.7C-46.8 267.8 -93.6 258 -136.3 236.1C-179 214.1 -217.6 180.2 -240.5 138.9C-263.4 97.5 -270.6 48.8 -277.7 0L0 0Z" fill="#d198c0"></path><path d="M0 185.1C-31.2 178.6 -62.4 172 -90.9 157.4C-119.3 142.8 -145.1 120.1 -160.3 92.6C-175.6 65 -180.4 32.5 -185.1 0L0 0Z" fill="#ce89ba"></path><path d="M0 92.6C-15.6 89.3 -31.2 86 -45.4 78.7C-59.7 71.4 -72.5 60.1 -80.2 46.3C-87.8 32.5 -90.2 16.3 -92.6 0L0 0Z" fill="#cc81b7"></path></g><g transform="translate(0, 1080)"><path d="M0 -648C109.7 -625.9 219.4 -603.8 319 -552.5C418.6 -501.3 508 -420.9 561.2 -324C614.3 -227.1 631.2 -113.5 648 0L0 0Z" fill="#d9d3d7"></path><path d="M0 -555.4C94 -536.5 188.1 -517.5 273.4 -473.6C358.8 -429.7 435.5 -360.8 481 -277.7C526.6 -194.6 541 -97.3 555.4 0L0 0Z" fill="#d8c4d1"></path><path d="M0 -462.9C78.4 -447.1 156.7 -431.3 227.9 -394.7C299 -358.1 362.9 -300.7 400.8 -231.4C438.8 -162.2 450.8 -81.1 462.9 0L0 0Z" fill="#d6b5cb"></path><path d="M0 -370.3C62.7 -357.6 125.4 -345 182.3 -315.7C239.2 -286.5 290.3 -240.5 320.7 -185.1C351 -129.7 360.7 -64.9 370.3 0L0 0Z" fill="#d3a7c6"></path><path d="M0 -277.7C47 -268.2 94 -258.8 136.7 -236.8C179.4 -214.8 217.7 -180.4 240.5 -138.9C263.3 -97.3 270.5 -48.7 277.7 0L0 0Z" fill="#d198c0"></path><path d="M0 -185.1C31.3 -178.8 62.7 -172.5 91.1 -157.9C119.6 -143.2 145.2 -120.3 160.3 -92.6C175.5 -64.9 180.3 -32.4 185.1 0L0 0Z" fill="#ce89ba"></path><path d="M0 -92.6C15.7 -89.4 31.3 -86.3 45.6 -78.9C59.8 -71.6 72.6 -60.1 80.2 -46.3C87.8 -32.4 90.2 -16.2 92.6 0L0 0Z" fill="#cc81b7"></path></g></svg>