<svg xmlns="http://www.w3.org/2000/svg" version="1.1" xmlns:xlink="http://www.w3.org/1999/xlink" xmlns:svgjs="http://svgjs.com/svgjs" width="1440" height="400" preserveAspectRatio="none" viewBox="0 0 1440 400"><g mask="url(&quot;#SvgjsMask1516&quot;)" fill="none"><path d="M28 400L428 0L600.5 0L200.5 400z" fill="url(#SvgjsLinearGradient1517)"></path><path d="M283.6 400L683.6 0L832.1 0L432.1 400z" fill="url(#SvgjsLinearGradient1517)"></path><path d="M477.20000000000005 400L877.2 0L985.2 0L585.2 400z" fill="url(#SvgjsLinearGradient1517)"></path><path d="M754.8000000000001 400L1154.8000000000002 0L1312.3000000000002 0L912.3000000000001 400z" fill="url(#SvgjsLinearGradient1517)"></path><path d="M1418 400L1018 0L824.5 0L1224.5 400z" fill="url(#SvgjsLinearGradient1518)"></path><path d="M1184.4 400L784.4000000000001 0L559.4000000000001 0L959.4000000000001 400z" fill="url(#SvgjsLinearGradient1518)"></path><path d="M927.8 400L527.8 0L415.29999999999995 0L815.3 400z" fill="url(#SvgjsLinearGradient1518)"></path><path d="M718.1999999999999 400L318.19999999999993 0L256.69999999999993 0L656.6999999999999 400z" fill="url(#SvgjsLinearGradient1518)"></path><path d="M1231.5828189597137 400L1440 191.58281895971356L1440 400z" fill="url(#SvgjsLinearGradient1517)"></path><path d="M0 400L208.41718104028644 400L 0 191.58281895971356z" fill="url(#SvgjsLinearGradient1518)"></path></g><defs><mask id="SvgjsMask1516"><rect width="1440" height="400" fill="#ffffff"></rect></mask><linearGradient x1="0%" y1="100%" x2="100%" y2="0%" id="SvgjsLinearGradient1517"><stop stop-color="rgba(255, 218, 0, 0.17)" offset="0"></stop><stop stop-opacity="0" stop-color="rgba(255, 218, 0, 0.17)" offset="0.66"></stop></linearGradient><linearGradient x1="100%" y1="100%" x2="0%" y2="0%" id="SvgjsLinearGradient1518"><stop stop-color="rgba(255, 218, 0, 0.17)" offset="0"></stop><stop stop-opacity="0" stop-color="rgba(255, 218, 0, 0.17)" offset="0.66"></stop></linearGradient></defs></svg>